<?xml version="1.0" encoding="utf-8"?>
<!-- Generator: Adobe Illustrator 19.1.0, SVG Export Plug-In . SVG Version: 6.00 Build 0)  -->
<!DOCTYPE svg PUBLIC "-//W3C//DTD SVG 1.1//EN" "http://www.w3.org/Graphics/SVG/1.1/DTD/svg11.dtd">
<svg version="1.1" xmlns="http://www.w3.org/2000/svg" xmlns:xlink="http://www.w3.org/1999/xlink" x="0px" y="0px"
	 viewBox="0 0 238 159" enable-background="new 0 0 238 159" xml:space="preserve">
<g id="Background">
</g>
<g id="Swimlanes">
</g>
<g id="Customer_Churn">
</g>
<g id="Deployed">
</g>
<g id="Connected_Car">
	<g>
		<g>
			<g>
			</g>
		</g>
	</g>
</g>
<g id="Deployed_1_" display="none">
</g>
<g id="Helpers">
</g>
<g id="labels">
</g>
<g id="gallery_card_artwork">
	<rect x="-0.3" fill="#F2F2F2" width="238" height="159"/>
	<path opacity="0.2" fill="#1EBAED" d="M99.3,51.5c0-5.5-4.5-9.9-9.9-9.9c-0.4,0-0.8,0-1.2,0.1c0.6-2.2,0.9-4.6,0.9-7
		c0-14.6-11.9-26.3-26.5-26.3C51,8.5,41.2,16,37.7,26.5c-1.8-0.6-3.8-1-5.9-1c-10,0-18,8.1-18,18.1c0,10,8.1,18,18.1,18c0,0,0,0,0,0
		l0,0l58.3-0.2l0,0C95.3,60.9,99.3,56.6,99.3,51.5z"/>
	<path opacity="0.2" fill="#1EBAED" d="M142.4,41.2c0-2.2-1.8-3.9-4-3.9c-0.2,0-0.3,0-0.5,0c0.2-0.9,0.4-1.8,0.4-2.8
		c0-5.8-4.7-10.5-10.6-10.5c-4.6,0-8.6,3-10,7.2c-0.7-0.3-1.5-0.4-2.4-0.4c-4,0-7.2,3.2-7.2,7.2c0,4,3.2,7.2,7.2,7.2c0,0,0,0,0,0
		l0,0l23.3-0.1l0,0C140.8,45,142.4,43.3,142.4,41.2z"/>
	<g>
		<path fill="#80B940" d="M211.9,134.2l0.5-2.2l3.4-1.8l-0.4-3l-0.4-0.1l-3.3-0.6l-1.2-1.9l1.1-3.7l-2.4-1.8l-0.4,0.3l-2.8,2
			l-2.2-0.5l-1.8-3.4l-3,0.4l-0.1,0.4l-0.6,3.3l-1.9,1.2l-3.7-1.1l-1.8,2.4l0.3,0.4l2,2.8l-0.5,2.2l-3.4,1.8l0.4,3l0.4,0.1l3.3,0.6
			l1.2,1.9l-1.1,3.7l2.4,1.8l0.4-0.3l2.8-2l2.2,0.5l1.8,3.4l3-0.4l0.1-0.4l0.6-3.3l1.9-1.2l3.7,1.1l1.8-2.4l-0.3-0.4L211.9,134.2z
			 M200,134.1c-1.9-1.4-2.3-4-0.9-5.9c1.4-1.9,4-2.3,5.9-0.9c1.9,1.4,2.3,4,0.9,5.9C204.6,135.1,201.9,135.5,200,134.1z"/>
		<path fill="#80B940" d="M218.2,99.8l0.1-3.6l4.8-4l-1.7-4.6l-0.7,0l-5.5,0.2l-2.5-2.7l0.5-6.2l-4.4-2l-0.5,0.5l-3.7,4l-3.6-0.1
			l-4-4.8l-4.6,1.7l0,0.7l0.2,5.5l-2.7,2.5l-6.2-0.5l-2,4.4l0.5,0.5l4,3.7l-0.1,3.6l-4.8,4l1.7,4.6l0.7,0l5.5-0.2l2.5,2.7l-0.5,6.2
			l4.4,2l0.5-0.5l3.7-4l3.6,0.1l4,4.8l4.6-1.7l0-0.7l-0.2-5.5l2.7-2.5l6.2,0.5l2-4.4l-0.5-0.5L218.2,99.8z M197.7,107.5
			c-5.6-2.6-8-9.2-5.5-14.7c2.6-5.6,9.2-8,14.7-5.5c5.6,2.6,8,9.2,5.5,14.7C209.8,107.6,203.2,110,197.7,107.5z"/>
		<path fill="#80B940" d="M184.3,122.4l0.1-3.6l4.8-4l-1.7-4.6l-0.7,0l-5.5,0.2l-2.5-2.7l0.5-6.2l-4.4-2l-0.5,0.5l-3.7,4l-3.6-0.1
			l-4-4.8l-4.6,1.7l0,0.7l0.2,5.5l-2.7,2.5L150,109l-2,4.4l0.5,0.5l4,3.7l-0.1,3.6l-4.8,4l1.7,4.6l0.7,0l5.5-0.2l2.5,2.7l-0.5,6.2
			l4.4,2l0.5-0.5l3.7-4l3.6,0.1l4,4.8l4.6-1.7l0-0.7l-0.2-5.5l2.7-2.5l6.2,0.5l2-4.4l-0.5-0.5L184.3,122.4z M163.8,130.1
			c-5.6-2.6-8-9.2-5.5-14.7c2.6-5.6,9.2-8,14.7-5.5c5.6,2.6,8,9.2,5.5,14.7C176,130.2,169.4,132.7,163.8,130.1z"/>
	</g>
	<g>
		<path fill="#999999" d="M189.8,52.4c2.8,6.2-57.8,33-91.4,48c-36.1,16.1-56.9,18.1-60.8,9.2c-2.7-6.1-9.8-22.1-12.1-27.2
			c-2.3-5.1,6.1-6.8,9.5-4.2c2.1,1.6,8.9,6.6,13.6,10.1c2.7,2,4.7,3.4,7.6,2.1c2.9-1.3,97-43.3,97-43.3
			C171.8,38.7,187,46.1,189.8,52.4z"/>
		<path fill="#A6CFE5" d="M115.2,137.4c-1.9,4.2-5.7,8.6-8.5,9.8l-5.4,2.4c-1.6,0.7-2.7-0.6-1.5-5.3l12.3-65.7
			c1.9-4.2,5.7-8.6,8.5-9.8l28-12.5c2.8-1.2,3.5,1.1,1.5,5.3L115.2,137.4z"/>
		<path opacity="0.2" d="M189.8,52.4c2.8,6.2-57.8,33-91.4,48c-36.1,16.1-56.9,18.1-60.8,9.2c-2.7-6.1-9.8-22.1-12.1-27.2
			c-2.3-5.1,6.1-6.8,9.5-4.2c2.1,1.6,8.9,6.6,13.6,10.1c2.7,2,4.7,3.4,7.6,2.1c2.9-1.3,97-43.3,97-43.3
			C171.8,38.7,187,46.1,189.8,52.4z"/>
		<path fill="#999999" d="M87.7,71.1L61.3,57.9c-4.3-2.3-4.5-4-3-4.7l5.4-2.4c2.8-1.2,8.6-1.1,13,0.2l35,9.3L87.7,71.1z M189.8,52.4
			c-2.8-6.2-18-13.6-36.7-5.3c0,0-94.1,42-97,43.3c-2.9,1.3-4.9-0.1-7.6-2.1c-4.7-3.4-11.4-8.4-13.6-10.1c-3.3-2.6-11.8-0.9-9.5,4.2
			c2.3,5.1,9.4,21.2,12.1,27.2c1.2,2.6,3.8,4.3,7.8,4.9L110.6,87l-10.7,57.2c-1.2,4.7,0,6,1.5,5.3l5.4-2.4c2.8-1.2,6.6-5.6,8.5-9.8
			l30-64.9l44.4-18.7C189.9,53.2,189.9,52.8,189.8,52.4z"/>
	</g>
</g>
<g id="Layer_5" display="none">
</g>
</svg>
